+ filenameToUse=/home/horvathandras/vatic/vatic/public/videouploads/DJI_0107_ragas_Vaskut_20180630_napos_napraforgo_T4.avi
+ filenameNoDot=DJI_0107_ragas_Vaskut_20180630_napos_napraforgo_T4
+ FullUploadPath=/home/horvathandras/vatic/vatic/public/videouploads/DJI_0107_ragas_Vaskut_20180630_napos_napraforgo_T4.avi
+ VideoDataDir=/home/horvathandras/vatic/vatic/videos
+ AvailableObjectTypes='PozitívROI NegatívROI Túrás ~Friss ~1-2Hetes ~Régebbi ~Egyéb1 ~Egyéb2 ~Egyéb3 Rágás ~Friss ~1-2Hetes ~Régebbi ~Egyéb1 ~Egyéb2 ~Egyéb3 Törés ~Friss ~1-2Hetes ~Régebbi ~Egyéb1 ~Egyéb2 ~Egyéb3 Taposás ~Friss ~1-2Hetes ~Régebbi ~Egyéb1 ~Egyéb2 ~Egyéb3 EgészségesNövény Egyéb1 Egyéb2 Egyéb3 Egyéb4 Egyéb5 Bizonytalan Művelőút Gktaposás Vetőhiba Széldöntés Jégkár Belvíz Aszály Erózió EgyszikűGyom KétszikűGyom EgyébNövvédelmiPR'
++ dirname /home/horvathandras/vatic/vatic/vatic_publisher.sh
+ cd /home/horvathandras/vatic/vatic
+ touch /home/horvathandras/vatic/vatic/public/videouploads/DJI_0107_ragas_Vaskut_20180630_napos_napraforgo_T4.avi
+ chmod 744 /home/horvathandras/vatic/vatic/public/videouploads/DJI_0107_ragas_Vaskut_20180630_napos_napraforgo_T4.avi
+ mkdir /home/horvathandras/vatic/vatic/videos/DJI_0107_ragas_Vaskut_20180630_napos_napraforgo_T4
+ turkic extract /home/horvathandras/vatic/vatic/public/videouploads/DJI_0107_ragas_Vaskut_20180630_napos_napraforgo_T4.avi /home/horvathandras/vatic/vatic/videos/DJI_0107_ragas_Vaskut_20180630_napos_napraforgo_T4 --no-resize
ffmpeg version 2.8.14-0ubuntu0.16.04.1 Copyright (c) 2000-2018 the FFmpeg developers
  built with gcc 5.4.0 (Ubuntu 5.4.0-6ubuntu1~16.04.9) 20160609
  configuration: --prefix=/usr --extra-version=0ubuntu0.16.04.1 --build-suffix=-ffmpeg --toolchain=hardened --libdir=/usr/lib/x86_64-linux-gnu --incdir=/usr/include/x86_64-linux-gnu --cc=cc --cxx=g++ --enable-gpl --enable-shared --disable-stripping --disable-decoder=libopenjpeg --disable-decoder=libschroedinger --enable-avresample --enable-avisynth --enable-gnutls --enable-ladspa --enable-libass --enable-libbluray --enable-libbs2b --enable-libcaca --enable-libcdio --enable-libflite --enable-libfontconfig --enable-libfreetype --enable-libfribidi --enable-libgme --enable-libgsm --enable-libmodplug --enable-libmp3lame --enable-libopenjpeg --enable-libopus --enable-libpulse --enable-librtmp --enable-libschroedinger --enable-libshine --enable-libsnappy --enable-libsoxr --enable-libspeex --enable-libssh --enable-libtheora --enable-libtwolame --enable-libvorbis --enable-libvpx --enable-libwavpack --enable-libwebp --enable-libx265 --enable-libxvid --enable-libzvbi --enable-openal --enable-opengl --enable-x11grab --enable-libdc1394 --enable-libiec61883 --enable-libzmq --enable-frei0r --enable-libx264 --enable-libopencv
  libavutil      54. 31.100 / 54. 31.100
  libavcodec     56. 60.100 / 56. 60.100
  libavformat    56. 40.101 / 56. 40.101
  libavdevice    56.  4.100 / 56.  4.100
  libavfilter     5. 40.101 /  5. 40.101
  libavresample   2.  1.  0 /  2.  1.  0
  libswscale      3.  1.101 /  3.  1.101
  libswresample   1.  2.101 /  1.  2.101
  libpostproc    53.  3.100 / 53.  3.100
Input #0, mov,mp4,m4a,3gp,3g2,mj2, from '/home/horvathandras/vatic/vatic/public/videouploads/DJI_0107_ragas_Vaskut_20180630_napos_napraforgo_T4.avi':
  Metadata:
    major_brand     : qt  
    minor_version   : 537986816
    compatible_brands: qt  
    creation_time   : 2018-06-30 07:35:42
    location        : +46.091796+18.980864+30.100
    location-{    : +46.091796+18.980864+30.100
    comment         : DE=None, Mode=P, DSW=0001
  Duration: 00:00:14.64, start: 0.000000, bitrate: 101480 kb/s
    Stream #0:0(eng): Video: h264 (High) (avc1 / 0x31637661), yuv420p(tv, bt709), 4096x2160 [SAR 1:1 DAR 256:135], 101471 kb/s, 50 fps, 50 tbr, 50k tbn, 100 tbc (default)
    Metadata:
      creation_time   : 2018-06-30 07:35:42
      handler_name    : DJI.AVC
      encoder         : AVC encoder
    Stream #0:1(eng): Data: none (priv / 0x76697270), 4 kb/s
    Metadata:
      creation_time   : 2018-06-30 07:35:42
      handler_name    : DJI.Meta
Please use -b:a or -b:v, -b is ambiguous
[swscaler @ 0x1ca90e0] deprecated pixel format used, make sure you did set range correctly
Output #0, image2, to '/tmp/pyvision-ffmpeg-741978528/%d.jpg':
  Metadata:
    major_brand     : qt  
    minor_version   : 537986816
    compatible_brands: qt  
    comment         : DE=None, Mode=P, DSW=0001
    location        : +46.091796+18.980864+30.100
    location-{    : +46.091796+18.980864+30.100
    encoder         : Lavf56.40.101
    Stream #0:0(eng): Video: mjpeg, yuvj420p(pc), 4096x2160 [SAR 1:1 DAR 256:135], q=2-31, 10000 kb/s, 50 fps, 50 tbn, 50 tbc (default)
    Metadata:
      creation_time   : 2018-06-30 07:35:42
      handler_name    : DJI.AVC
      encoder         : Lavc56.60.100 mjpeg
Stream mapping:
  Stream #0:0 -> #0:0 (h264 (native) -> mjpeg (native))
Press [q] to stop, [?] for help
frame=    1 fps=0.0 q=20.2 size=N/A time=00:00:00.02 bitrate=N/A    frame=    5 fps=4.1 q=24.8 size=N/A time=00:00:00.10 bitrate=N/A    frame=   10 fps=5.4 q=24.8 size=N/A time=00:00:00.20 bitrate=N/A    frame=   15 fps=6.1 q=24.8 size=N/A time=00:00:00.30 bitrate=N/A    frame=   20 fps=6.5 q=24.8 size=N/A time=00:00:00.40 bitrate=N/A    frame=   25 fps=6.8 q=24.8 size=N/A time=00:00:00.50 bitrate=N/A    frame=   29 fps=6.8 q=24.8 size=N/A time=00:00:00.58 bitrate=N/A    frame=   34 fps=7.0 q=24.8 size=N/A time=00:00:00.68 bitrate=N/A    frame=   39 fps=7.1 q=24.8 size=N/A time=00:00:00.78 bitrate=N/A    frame=   44 fps=7.2 q=24.8 size=N/A time=00:00:00.88 bitrate=N/A    frame=   49 fps=7.3 q=24.8 size=N/A time=00:00:00.98 bitrate=N/A    frame=   54 fps=7.4 q=24.8 size=N/A time=00:00:01.08 bitrate=N/A    frame=   59 fps=7.4 q=24.8 size=N/A time=00:00:01.18 bitrate=N/A    frame=   63 fps=7.5 q=24.8 size=N/A time=00:00:01.26 bitrate=N/A    frame=   68 fps=7.5 q=24.8 size=N/A time=00:00:01.36 bitrate=N/A    frame=   73 fps=7.5 q=24.8 size=N/A time=00:00:01.46 bitrate=N/A    frame=   78 fps=7.6 q=24.8 size=N/A time=00:00:01.56 bitrate=N/A    frame=   83 fps=7.6 q=24.8 size=N/A time=00:00:01.66 bitrate=N/A    frame=   88 fps=7.7 q=24.8 size=N/A time=00:00:01.76 bitrate=N/A    frame=   92 fps=7.6 q=24.8 size=N/A time=00:00:01.84 bitrate=N/A    frame=   97 fps=7.7 q=24.8 size=N/A time=00:00:01.94 bitrate=N/A    frame=  101 fps=7.7 q=24.8 size=N/A time=00:00:02.02 bitrate=N/A    frame=  106 fps=7.7 q=24.8 size=N/A time=00:00:02.12 bitrate=N/A    frame=  111 fps=7.7 q=24.8 size=N/A time=00:00:02.22 bitrate=N/A    frame=  116 fps=7.7 q=24.8 size=N/A time=00:00:02.32 bitrate=N/A    frame=  120 fps=7.7 q=24.8 size=N/A time=00:00:02.40 bitrate=N/A    frame=  125 fps=7.7 q=24.8 size=N/A time=00:00:02.50 bitrate=N/A    frame=  129 fps=7.7 q=24.8 size=N/A time=00:00:02.58 bitrate=N/A    frame=  134 fps=7.7 q=24.8 size=N/A time=00:00:02.68 bitrate=N/A    frame=  138 fps=7.8 q=24.8 size=N/A time=00:00:02.76 bitrate=N/A    frame=  143 fps=7.8 q=24.8 size=N/A time=00:00:02.86 bitrate=N/A    frame=  148 fps=7.8 q=24.8 size=N/A time=00:00:02.96 bitrate=N/A    frame=  152 fps=7.8 q=24.8 size=N/A time=00:00:03.04 bitrate=N/A    frame=  157 fps=7.8 q=24.8 size=N/A time=00:00:03.14 bitrate=N/A    frame=  162 fps=7.8 q=24.8 size=N/A time=00:00:03.24 bitrate=N/A    frame=  167 fps=7.8 q=24.8 size=N/A time=00:00:03.34 bitrate=N/A    frame=  172 fps=7.8 q=24.8 size=N/A time=00:00:03.44 bitrate=N/A    frame=  177 fps=7.8 q=24.8 size=N/A time=00:00:03.54 bitrate=N/A    frame=  181 fps=7.8 q=24.8 size=N/A time=00:00:03.62 bitrate=N/A    frame=  186 fps=7.8 q=24.8 size=N/A time=00:00:03.72 bitrate=N/A    frame=  191 fps=7.8 q=24.8 size=N/A time=00:00:03.82 bitrate=N/A    frame=  196 fps=7.8 q=24.8 size=N/A time=00:00:03.92 bitrate=N/A    frame=  201 fps=7.9 q=24.8 size=N/A time=00:00:04.02 bitrate=N/A    frame=  206 fps=7.9 q=24.8 size=N/A time=00:00:04.12 bitrate=N/A    frame=  210 fps=7.9 q=24.8 size=N/A time=00:00:04.20 bitrate=N/A    frame=  215 fps=7.9 q=24.8 size=N/A time=00:00:04.30 bitrate=N/A    frame=  220 fps=7.9 q=24.8 size=N/A time=00:00:04.40 bitrate=N/A    frame=  225 fps=7.9 q=24.8 size=N/A time=00:00:04.50 bitrate=N/A    frame=  230 fps=7.9 q=24.8 size=N/A time=00:00:04.60 bitrate=N/A    frame=  235 fps=7.9 q=24.8 size=N/A time=00:00:04.70 bitrate=N/A    frame=  240 fps=7.9 q=24.8 size=N/A time=00:00:04.80 bitrate=N/A    frame=  245 fps=7.9 q=24.8 size=N/A time=00:00:04.90 bitrate=N/A    frame=  250 fps=7.9 q=24.8 size=N/A time=00:00:05.00 bitrate=N/A    frame=  255 fps=7.9 q=24.8 size=N/A time=00:00:05.10 bitrate=N/A    frame=  260 fps=7.9 q=24.8 size=N/A time=00:00:05.20 bitrate=N/A    frame=  265 fps=7.9 q=24.8 size=N/A time=00:00:05.30 bitrate=N/A    frame=  270 fps=7.9 q=24.8 size=N/A time=00:00:05.40 bitrate=N/A    frame=  275 fps=7.9 q=24.8 size=N/A time=00:00:05.50 bitrate=N/A    frame=  280 fps=7.9 q=24.8 size=N/A time=00:00:05.60 bitrate=N/A    frame=  285 fps=7.9 q=24.8 size=N/A time=00:00:05.70 bitrate=N/A    frame=  290 fps=7.9 q=24.8 size=N/A time=00:00:05.80 bitrate=N/A    frame=  295 fps=7.9 q=24.8 size=N/A time=00:00:05.90 bitrate=N/A    frame=  300 fps=7.9 q=24.8 size=N/A time=00:00:06.00 bitrate=N/A    frame=  305 fps=7.9 q=24.8 size=N/A time=00:00:06.10 bitrate=N/A    frame=  310 fps=7.9 q=24.8 size=N/A time=00:00:06.20 bitrate=N/A    frame=  315 fps=7.9 q=24.8 size=N/A time=00:00:06.30 bitrate=N/A    frame=  320 fps=7.9 q=24.8 size=N/A time=00:00:06.40 bitrate=N/A    frame=  325 fps=7.9 q=24.8 size=N/A time=00:00:06.50 bitrate=N/A    frame=  330 fps=7.9 q=24.8 size=N/A time=00:00:06.60 bitrate=N/A    frame=  335 fps=7.9 q=24.8 size=N/A time=00:00:06.70 bitrate=N/A    frame=  340 fps=7.9 q=24.8 size=N/A time=00:00:06.80 bitrate=N/A    frame=  345 fps=7.9 q=24.8 size=N/A time=00:00:06.90 bitrate=N/A    frame=  350 fps=7.9 q=24.8 size=N/A time=00:00:07.00 bitrate=N/A    frame=  355 fps=7.9 q=24.8 size=N/A time=00:00:07.10 bitrate=N/A    frame=  359 fps=7.9 q=24.8 size=N/A time=00:00:07.18 bitrate=N/A    frame=  364 fps=7.9 q=24.8 size=N/A time=00:00:07.28 bitrate=N/A    frame=  369 fps=7.9 q=24.8 size=N/A time=00:00:07.38 bitrate=N/A    frame=  374 fps=7.9 q=24.8 size=N/A time=00:00:07.48 bitrate=N/A    frame=  379 fps=7.9 q=24.8 size=N/A time=00:00:07.58 bitrate=N/A    frame=  384 fps=7.9 q=24.8 size=N/A time=00:00:07.68 bitrate=N/A    frame=  389 fps=7.9 q=24.8 size=N/A time=00:00:07.78 bitrate=N/A    frame=  393 fps=7.9 q=24.8 size=N/A time=00:00:07.86 bitrate=N/A    frame=  398 fps=7.9 q=24.8 size=N/A time=00:00:07.96 bitrate=N/A    frame=  403 fps=7.9 q=24.8 size=N/A time=00:00:08.06 bitrate=N/A    frame=  408 fps=7.9 q=24.8 size=N/A time=00:00:08.16 bitrate=N/A    frame=  413 fps=8.0 q=24.8 size=N/A time=00:00:08.26 bitrate=N/A    frame=  418 fps=8.0 q=24.8 size=N/A time=00:00:08.36 bitrate=N/A    frame=  422 fps=7.9 q=24.8 size=N/A time=00:00:08.44 bitrate=N/A    frame=  427 fps=7.9 q=24.8 size=N/A time=00:00:08.54 bitrate=N/A    frame=  432 fps=8.0 q=24.8 size=N/A time=00:00:08.64 bitrate=N/A    frame=  437 fps=8.0 q=24.8 size=N/A time=00:00:08.74 bitrate=N/A    frame=  442 fps=8.0 q=24.8 size=N/A time=00:00:08.84 bitrate=N/A    frame=  447 fps=8.0 q=24.8 size=N/A time=00:00:08.94 bitrate=N/A    frame=  451 fps=8.0 q=24.8 size=N/A time=00:00:09.02 bitrate=N/A    frame=  456 fps=8.0 q=24.8 size=N/A time=00:00:09.12 bitrate=N/A    frame=  461 fps=8.0 q=24.8 size=N/A time=00:00:09.22 bitrate=N/A    frame=  466 fps=8.0 q=24.8 size=N/A time=00:00:09.32 bitrate=N/A    frame=  471 fps=8.0 q=24.8 size=N/A time=00:00:09.42 bitrate=N/A    frame=  476 fps=8.0 q=24.8 size=N/A time=00:00:09.52 bitrate=N/A    frame=  480 fps=8.0 q=24.8 size=N/A time=00:00:09.60 bitrate=N/A    frame=  485 fps=8.0 q=24.8 size=N/A time=00:00:09.70 bitrate=N/A    frame=  490 fps=8.0 q=24.8 size=N/A time=00:00:09.80 bitrate=N/A    frame=  495 fps=8.0 q=24.8 size=N/A time=00:00:09.90 bitrate=N/A    frame=  499 fps=8.0 q=24.8 size=N/A time=00:00:09.98 bitrate=N/A    frame=  504 fps=8.0 q=24.8 size=N/A time=00:00:10.08 bitrate=N/A    frame=  509 fps=8.0 q=24.8 size=N/A time=00:00:10.18 bitrate=N/A    frame=  513 fps=8.0 q=24.8 size=N/A time=00:00:10.26 bitrate=N/A    frame=  518 fps=8.0 q=24.8 size=N/A time=00:00:10.36 bitrate=N/A    frame=  523 fps=8.0 q=24.8 size=N/A time=00:00:10.46 bitrate=N/A    frame=  528 fps=8.0 q=24.8 size=N/A time=00:00:10.56 bitrate=N/A    frame=  533 fps=8.0 q=24.8 size=N/A time=00:00:10.66 bitrate=N/A    frame=  538 fps=8.0 q=24.8 size=N/A time=00:00:10.76 bitrate=N/A    frame=  542 fps=8.0 q=24.8 size=N/A time=00:00:10.84 bitrate=N/A    frame=  547 fps=8.0 q=24.8 size=N/A time=00:00:10.94 bitrate=N/A    frame=  552 fps=8.0 q=24.8 size=N/A time=00:00:11.04 bitrate=N/A    frame=  557 fps=8.0 q=24.8 size=N/A time=00:00:11.14 bitrate=N/A    frame=  562 fps=8.0 q=24.8 size=N/A time=00:00:11.24 bitrate=N/A    frame=  567 fps=8.0 q=24.8 size=N/A time=00:00:11.34 bitrate=N/A    frame=  571 fps=8.0 q=24.8 size=N/A time=00:00:11.42 bitrate=N/A    frame=  575 fps=8.0 q=24.8 size=N/A time=00:00:11.50 bitrate=N/A    frame=  580 fps=8.0 q=24.8 size=N/A time=00:00:11.60 bitrate=N/A    frame=  585 fps=8.0 q=24.8 size=N/A time=00:00:11.70 bitrate=N/A    frame=  590 fps=8.0 q=24.8 size=N/A time=00:00:11.80 bitrate=N/A    frame=  595 fps=8.0 q=24.8 size=N/A time=00:00:11.90 bitrate=N/A    frame=  600 fps=8.0 q=24.8 size=N/A time=00:00:12.00 bitrate=N/A    frame=  605 fps=8.0 q=24.8 size=N/A time=00:00:12.10 bitrate=N/A    frame=  610 fps=8.0 q=24.8 size=N/A time=00:00:12.20 bitrate=N/A    frame=  615 fps=8.0 q=24.8 size=N/A time=00:00:12.30 bitrate=N/A    frame=  620 fps=8.0 q=24.8 size=N/A time=00:00:12.40 bitrate=N/A    frame=  625 fps=8.0 q=24.8 size=N/A time=00:00:12.50 bitrate=N/A    frame=  630 fps=8.0 q=24.8 size=N/A time=00:00:12.60 bitrate=N/A    frame=  635 fps=8.0 q=24.8 size=N/A time=00:00:12.70 bitrate=N/A    frame=  640 fps=8.0 q=24.8 size=N/A time=00:00:12.80 bitrate=N/A    frame=  645 fps=8.0 q=24.8 size=N/A time=00:00:12.90 bitrate=N/A    frame=  650 fps=8.0 q=24.8 size=N/A time=00:00:13.00 bitrate=N/A    frame=  655 fps=8.0 q=24.8 size=N/A time=00:00:13.10 bitrate=N/A    frame=  659 fps=8.0 q=24.8 size=N/A time=00:00:13.18 bitrate=N/A    frame=  664 fps=8.0 q=24.8 size=N/A time=00:00:13.28 bitrate=N/A    frame=  668 fps=8.0 q=24.8 size=N/A time=00:00:13.36 bitrate=N/A    frame=  673 fps=8.0 q=24.8 size=N/A time=00:00:13.46 bitrate=N/A    frame=  678 fps=8.0 q=24.8 size=N/A time=00:00:13.56 bitrate=N/A    frame=  683 fps=8.0 q=24.8 size=N/A time=00:00:13.66 bitrate=N/A    frame=  688 fps=8.0 q=24.8 size=N/A time=00:00:13.76 bitrate=N/A    frame=  692 fps=8.0 q=24.8 size=N/A time=00:00:13.84 bitrate=N/A    frame=  696 fps=8.0 q=24.8 size=N/A time=00:00:13.92 bitrate=N/A    frame=  701 fps=8.0 q=24.8 size=N/A time=00:00:14.02 bitrate=N/A    frame=  706 fps=8.0 q=24.8 size=N/A time=00:00:14.12 bitrate=N/A    frame=  711 fps=8.0 q=24.8 size=N/A time=00:00:14.22 bitrate=N/A    frame=  716 fps=8.0 q=24.8 size=N/A time=00:00:14.32 bitrate=N/A    frame=  720 fps=8.0 q=24.8 size=N/A time=00:00:14.40 bitrate=N/A    frame=  725 fps=8.0 q=24.8 size=N/A time=00:00:14.50 bitrate=N/A    frame=  730 fps=8.0 q=24.8 size=N/A time=00:00:14.60 bitrate=N/A    frame=  732 fps=8.0 q=24.8 Lsize=N/A time=00:00:14.64 bitrate=N/A    
video:691632kB audio:0kB subtitle:0kB other streams:0kB global headers:0kB muxing overhead: unknown
+ turkic load DJI_0107_ragas_Vaskut_20180630_napos_napraforgo_T4 /home/horvathandras/vatic/vatic/videos/DJI_0107_ragas_Vaskut_20180630_napos_napraforgo_T4 $'Pozit\303\255vROI' $'Negat\303\255vROI' $'T\303\272r\303\241s' '~Friss' '~1-2Hetes' '~Régebbi' '~Egyéb1' '~Egyéb2' '~Egyéb3' $'R\303\241g\303\241s' '~Friss' '~1-2Hetes' '~Régebbi' '~Egyéb1' '~Egyéb2' '~Egyéb3' $'T\303\266r\303\251s' '~Friss' '~1-2Hetes' '~Régebbi' '~Egyéb1' '~Egyéb2' '~Egyéb3' $'Tapos\303\241s' '~Friss' '~1-2Hetes' '~Régebbi' '~Egyéb1' '~Egyéb2' '~Egyéb3' $'Eg\303\251szs\303\251gesN\303\266v\303\251ny' $'Egy\303\251b1' $'Egy\303\251b2' $'Egy\303\251b3' $'Egy\303\251b4' $'Egy\303\251b5' Bizonytalan $'M\305\261vel\305\221\303\272t' $'Gktapos\303\241s' $'Vet\305\221hiba' $'Sz\303\251ld\303\266nt\303\251s' $'J\303\251gk\303\241r' $'Belv\303\255z' $'Asz\303\241ly' $'Er\303\263zi\303\263' $'Egyszik\305\261Gyom' $'K\303\251tszik\305\261Gyom' $'Egy\303\251bN\303\266vv\303\251delmiPR' --offline --title '$filenameNoDot Video' --length 1000 --description 'vatic annotation'
+ turkic publish --offline
+ mkdir /home/horvathandras/vatic/vatic/public/videothumbnails/DJI_0107_ragas_Vaskut_20180630_napos_napraforgo_T4
+ cp /home/horvathandras/vatic/vatic/videos/DJI_0107_ragas_Vaskut_20180630_napos_napraforgo_T4/0/0/31.jpg /home/horvathandras/vatic/vatic/public/videothumbnails/DJI_0107_ragas_Vaskut_20180630_napos_napraforgo_T4/thumb.jpg
